<mxfile host="app.diagrams.net" modified="2023-10-17T11:09:25.155Z" agent="Mozilla/5.0 (Macintosh; Intel Mac OS X 10_15_7) AppleWebKit/605.1.15 (KHTML, like Gecko) Version/16.6 Safari/605.1.15" etag="-kPIDeKCxR-b4WO6ZzpT" version="22.0.4" type="github">
  <diagram name="Page-1" id="BzrCAMJrT_pIZF7PIiRM">
    <mxGraphModel dx="618" dy="2138" grid="1" gridSize="10" guides="1" tooltips="1" connect="1" arrows="1" fold="1" page="1" pageScale="1" pageWidth="850" pageHeight="1100" math="0" shadow="0">
      <root>
        <mxCell id="0" />
        <mxCell id="1" parent="0" />
        <mxCell id="wmTt1OREweZVdawmAFVs-40" style="rounded=0;orthogonalLoop=1;jettySize=auto;html=1;entryX=0.5;entryY=1;entryDx=0;entryDy=0;endArrow=none;endFill=0;" edge="1" parent="1" source="wmTt1OREweZVdawmAFVs-19" target="wmTt1OREweZVdawmAFVs-35">
          <mxGeometry relative="1" as="geometry" />
        </mxCell>
        <mxCell id="wmTt1OREweZVdawmAFVs-19" value="Занятия" style="rounded=1;whiteSpace=wrap;html=1;" vertex="1" parent="1">
          <mxGeometry x="1140" y="420" width="120" height="60" as="geometry" />
        </mxCell>
        <mxCell id="wmTt1OREweZVdawmAFVs-26" style="edgeStyle=orthogonalEdgeStyle;rounded=0;orthogonalLoop=1;jettySize=auto;html=1;entryX=0.5;entryY=0;entryDx=0;entryDy=0;" edge="1" parent="1" source="wmTt1OREweZVdawmAFVs-21" target="wmTt1OREweZVdawmAFVs-19">
          <mxGeometry relative="1" as="geometry" />
        </mxCell>
        <mxCell id="wmTt1OREweZVdawmAFVs-21" value="Преподавате&lt;span style=&quot;white-space: pre;&quot;&gt;ли&lt;/span&gt;" style="rounded=1;whiteSpace=wrap;html=1;" vertex="1" parent="1">
          <mxGeometry x="1140" y="100" width="120" height="60" as="geometry" />
        </mxCell>
        <mxCell id="wmTt1OREweZVdawmAFVs-31" value="" style="edgeStyle=orthogonalEdgeStyle;rounded=0;orthogonalLoop=1;jettySize=auto;html=1;startArrow=classicThin;startFill=1;" edge="1" parent="1" source="wmTt1OREweZVdawmAFVs-24" target="wmTt1OREweZVdawmAFVs-30">
          <mxGeometry relative="1" as="geometry" />
        </mxCell>
        <mxCell id="wmTt1OREweZVdawmAFVs-36" value="" style="edgeStyle=orthogonalEdgeStyle;rounded=0;orthogonalLoop=1;jettySize=auto;html=1;startArrow=classic;startFill=1;" edge="1" parent="1" source="wmTt1OREweZVdawmAFVs-24" target="wmTt1OREweZVdawmAFVs-35">
          <mxGeometry relative="1" as="geometry" />
        </mxCell>
        <mxCell id="wmTt1OREweZVdawmAFVs-24" value="Ученики" style="rounded=1;whiteSpace=wrap;html=1;" vertex="1" parent="1">
          <mxGeometry x="1310" y="130" width="120" height="60" as="geometry" />
        </mxCell>
        <mxCell id="wmTt1OREweZVdawmAFVs-29" style="edgeStyle=orthogonalEdgeStyle;rounded=0;orthogonalLoop=1;jettySize=auto;html=1;entryX=0;entryY=0.5;entryDx=0;entryDy=0;exitX=0.5;exitY=1;exitDx=0;exitDy=0;" edge="1" parent="1" source="wmTt1OREweZVdawmAFVs-27" target="wmTt1OREweZVdawmAFVs-19">
          <mxGeometry relative="1" as="geometry" />
        </mxCell>
        <mxCell id="wmTt1OREweZVdawmAFVs-27" value="Дисциплины" style="rounded=1;whiteSpace=wrap;html=1;" vertex="1" parent="1">
          <mxGeometry x="940" y="100" width="120" height="60" as="geometry" />
        </mxCell>
        <mxCell id="wmTt1OREweZVdawmAFVs-32" style="edgeStyle=orthogonalEdgeStyle;rounded=0;orthogonalLoop=1;jettySize=auto;html=1;entryX=1;entryY=0.5;entryDx=0;entryDy=0;exitX=0.5;exitY=1;exitDx=0;exitDy=0;" edge="1" parent="1" source="wmTt1OREweZVdawmAFVs-30" target="wmTt1OREweZVdawmAFVs-19">
          <mxGeometry relative="1" as="geometry" />
        </mxCell>
        <mxCell id="wmTt1OREweZVdawmAFVs-30" value="Группы" style="rounded=1;whiteSpace=wrap;html=1;" vertex="1" parent="1">
          <mxGeometry x="1550" y="130" width="120" height="60" as="geometry" />
        </mxCell>
        <mxCell id="wmTt1OREweZVdawmAFVs-35" value="Домашние задания" style="rounded=1;whiteSpace=wrap;html=1;" vertex="1" parent="1">
          <mxGeometry x="1310" y="260" width="120" height="60" as="geometry" />
        </mxCell>
        <mxCell id="wmTt1OREweZVdawmAFVs-42" value="Занятия" style="rounded=1;whiteSpace=wrap;html=1;" vertex="1" parent="1">
          <mxGeometry x="2100" y="300" width="120" height="60" as="geometry" />
        </mxCell>
        <mxCell id="wmTt1OREweZVdawmAFVs-43" style="edgeStyle=orthogonalEdgeStyle;rounded=0;orthogonalLoop=1;jettySize=auto;html=1;entryX=0.5;entryY=0;entryDx=0;entryDy=0;" edge="1" parent="1" source="wmTt1OREweZVdawmAFVs-44" target="wmTt1OREweZVdawmAFVs-42">
          <mxGeometry relative="1" as="geometry" />
        </mxCell>
        <mxCell id="wmTt1OREweZVdawmAFVs-44" value="Преподавате&lt;span style=&quot;white-space: pre;&quot;&gt;ли&lt;/span&gt;" style="rounded=1;whiteSpace=wrap;html=1;" vertex="1" parent="1">
          <mxGeometry x="2100" y="-20" width="120" height="60" as="geometry" />
        </mxCell>
        <mxCell id="wmTt1OREweZVdawmAFVs-45" value="" style="edgeStyle=orthogonalEdgeStyle;rounded=0;orthogonalLoop=1;jettySize=auto;html=1;startArrow=classicThin;startFill=1;" edge="1" parent="1" source="wmTt1OREweZVdawmAFVs-47" target="wmTt1OREweZVdawmAFVs-51">
          <mxGeometry relative="1" as="geometry" />
        </mxCell>
        <mxCell id="wmTt1OREweZVdawmAFVs-47" value="Ученики" style="rounded=1;whiteSpace=wrap;html=1;" vertex="1" parent="1">
          <mxGeometry x="2470" y="75" width="120" height="60" as="geometry" />
        </mxCell>
        <mxCell id="wmTt1OREweZVdawmAFVs-48" style="edgeStyle=orthogonalEdgeStyle;rounded=0;orthogonalLoop=1;jettySize=auto;html=1;entryX=0;entryY=0.5;entryDx=0;entryDy=0;exitX=0.5;exitY=1;exitDx=0;exitDy=0;" edge="1" parent="1" source="wmTt1OREweZVdawmAFVs-49" target="wmTt1OREweZVdawmAFVs-42">
          <mxGeometry relative="1" as="geometry" />
        </mxCell>
        <mxCell id="wmTt1OREweZVdawmAFVs-49" value="Дисциплины" style="rounded=1;whiteSpace=wrap;html=1;" vertex="1" parent="1">
          <mxGeometry x="1900" y="-20" width="120" height="60" as="geometry" />
        </mxCell>
        <mxCell id="wmTt1OREweZVdawmAFVs-50" style="edgeStyle=orthogonalEdgeStyle;rounded=0;orthogonalLoop=1;jettySize=auto;html=1;entryX=1;entryY=0.5;entryDx=0;entryDy=0;exitX=0.5;exitY=1;exitDx=0;exitDy=0;" edge="1" parent="1" source="wmTt1OREweZVdawmAFVs-51" target="wmTt1OREweZVdawmAFVs-42">
          <mxGeometry relative="1" as="geometry" />
        </mxCell>
        <mxCell id="wmTt1OREweZVdawmAFVs-51" value="Группы" style="rounded=1;whiteSpace=wrap;html=1;" vertex="1" parent="1">
          <mxGeometry x="2270" y="75" width="120" height="60" as="geometry" />
        </mxCell>
        <mxCell id="wmTt1OREweZVdawmAFVs-85" value="&lt;div style=&quot;box-sizing:border-box;width:100%;background:#e4e4e4;padding:2px;&quot;&gt;discipline&lt;/div&gt;&lt;table style=&quot;width:100%;font-size:1em;&quot; cellpadding=&quot;2&quot; cellspacing=&quot;0&quot;&gt;&lt;tbody&gt;&lt;tr&gt;&lt;td&gt;PK&lt;/td&gt;&lt;td&gt;discipline_id&lt;/td&gt;&lt;/tr&gt;&lt;tr&gt;&lt;td&gt;&lt;br&gt;&lt;/td&gt;&lt;td&gt;discipline_name&lt;/td&gt;&lt;/tr&gt;&lt;tr&gt;&lt;td&gt;&lt;/td&gt;&lt;td&gt;&lt;br&gt;&lt;/td&gt;&lt;/tr&gt;&lt;/tbody&gt;&lt;/table&gt;" style="verticalAlign=top;align=left;overflow=fill;html=1;whiteSpace=wrap;" vertex="1" parent="1">
          <mxGeometry x="1880" y="440" width="180" height="80" as="geometry" />
        </mxCell>
        <mxCell id="wmTt1OREweZVdawmAFVs-86" value="&lt;div style=&quot;box-sizing:border-box;width:100%;background:#e4e4e4;padding:2px;&quot;&gt;teacher&lt;/div&gt;&lt;table style=&quot;width:100%;font-size:1em;&quot; cellpadding=&quot;2&quot; cellspacing=&quot;0&quot;&gt;&lt;tbody&gt;&lt;tr&gt;&lt;td&gt;PK&lt;/td&gt;&lt;td&gt;teacher_id&lt;/td&gt;&lt;/tr&gt;&lt;tr&gt;&lt;td&gt;&lt;br&gt;&lt;/td&gt;&lt;td&gt;teacher_name&lt;/td&gt;&lt;/tr&gt;&lt;tr&gt;&lt;td&gt;&lt;/td&gt;&lt;td&gt;&lt;br&gt;&lt;/td&gt;&lt;/tr&gt;&lt;/tbody&gt;&lt;/table&gt;" style="verticalAlign=top;align=left;overflow=fill;html=1;whiteSpace=wrap;" vertex="1" parent="1">
          <mxGeometry x="2100" y="440" width="180" height="80" as="geometry" />
        </mxCell>
        <mxCell id="wmTt1OREweZVdawmAFVs-92" style="edgeStyle=orthogonalEdgeStyle;rounded=0;orthogonalLoop=1;jettySize=auto;html=1;entryX=0;entryY=0.5;entryDx=0;entryDy=0;exitX=-0.002;exitY=0.385;exitDx=0;exitDy=0;exitPerimeter=0;" edge="1" parent="1" source="wmTt1OREweZVdawmAFVs-87" target="wmTt1OREweZVdawmAFVs-90">
          <mxGeometry relative="1" as="geometry">
            <Array as="points">
              <mxPoint x="2320" y="471" />
              <mxPoint x="2320" y="635" />
            </Array>
          </mxGeometry>
        </mxCell>
        <mxCell id="wmTt1OREweZVdawmAFVs-100" style="edgeStyle=orthogonalEdgeStyle;rounded=0;orthogonalLoop=1;jettySize=auto;html=1;entryX=0;entryY=0.5;entryDx=0;entryDy=0;exitX=0;exitY=0.25;exitDx=0;exitDy=0;" edge="1" parent="1" source="wmTt1OREweZVdawmAFVs-87" target="wmTt1OREweZVdawmAFVs-96">
          <mxGeometry relative="1" as="geometry">
            <Array as="points">
              <mxPoint x="2300" y="460" />
              <mxPoint x="2300" y="558" />
              <mxPoint x="2180" y="558" />
              <mxPoint x="2180" y="780" />
            </Array>
          </mxGeometry>
        </mxCell>
        <mxCell id="wmTt1OREweZVdawmAFVs-87" value="&lt;div style=&quot;box-sizing:border-box;width:100%;background:#e4e4e4;padding:2px;&quot;&gt;group&lt;/div&gt;&lt;table style=&quot;width:100%;font-size:1em;&quot; cellpadding=&quot;2&quot; cellspacing=&quot;0&quot;&gt;&lt;tbody&gt;&lt;tr&gt;&lt;td&gt;PK&lt;/td&gt;&lt;td&gt;group_id&lt;/td&gt;&lt;/tr&gt;&lt;tr&gt;&lt;td&gt;&lt;br&gt;&lt;/td&gt;&lt;td&gt;group_name&lt;/td&gt;&lt;/tr&gt;&lt;tr&gt;&lt;td&gt;&lt;/td&gt;&lt;td&gt;&lt;br&gt;&lt;/td&gt;&lt;/tr&gt;&lt;/tbody&gt;&lt;/table&gt;" style="verticalAlign=top;align=left;overflow=fill;html=1;whiteSpace=wrap;" vertex="1" parent="1">
          <mxGeometry x="2330" y="440" width="180" height="80" as="geometry" />
        </mxCell>
        <mxCell id="wmTt1OREweZVdawmAFVs-93" style="edgeStyle=orthogonalEdgeStyle;rounded=0;orthogonalLoop=1;jettySize=auto;html=1;entryX=0;entryY=0.75;entryDx=0;entryDy=0;exitX=-0.011;exitY=0.343;exitDx=0;exitDy=0;exitPerimeter=0;" edge="1" parent="1" source="wmTt1OREweZVdawmAFVs-89" target="wmTt1OREweZVdawmAFVs-90">
          <mxGeometry relative="1" as="geometry">
            <Array as="points">
              <mxPoint x="2550" y="467" />
              <mxPoint x="2550" y="550" />
              <mxPoint x="2480" y="550" />
              <mxPoint x="2480" y="658" />
            </Array>
          </mxGeometry>
        </mxCell>
        <mxCell id="wmTt1OREweZVdawmAFVs-89" value="&lt;div style=&quot;box-sizing:border-box;width:100%;background:#e4e4e4;padding:2px;&quot;&gt;student&lt;/div&gt;&lt;table style=&quot;width:100%;font-size:1em;&quot; cellpadding=&quot;2&quot; cellspacing=&quot;0&quot;&gt;&lt;tbody&gt;&lt;tr&gt;&lt;td&gt;PK&lt;/td&gt;&lt;td&gt;student_id&lt;/td&gt;&lt;/tr&gt;&lt;tr&gt;&lt;td&gt;&lt;br&gt;&lt;/td&gt;&lt;td&gt;student_name&lt;/td&gt;&lt;/tr&gt;&lt;/tbody&gt;&lt;/table&gt;" style="verticalAlign=top;align=left;overflow=fill;html=1;whiteSpace=wrap;" vertex="1" parent="1">
          <mxGeometry x="2580" y="440" width="180" height="80" as="geometry" />
        </mxCell>
        <mxCell id="wmTt1OREweZVdawmAFVs-90" value="&lt;div style=&quot;box-sizing:border-box;width:100%;background:#e4e4e4;padding:2px;&quot;&gt;group_student&lt;/div&gt;&lt;table style=&quot;width:100%;font-size:1em;&quot; cellpadding=&quot;2&quot; cellspacing=&quot;0&quot;&gt;&lt;tbody&gt;&lt;tr&gt;&lt;td&gt;PK&lt;/td&gt;&lt;td&gt;group_student_id&lt;/td&gt;&lt;/tr&gt;&lt;tr&gt;&lt;td&gt;FK&lt;/td&gt;&lt;td&gt;group_id&lt;/td&gt;&lt;/tr&gt;&lt;tr&gt;&lt;td&gt;FK&lt;/td&gt;&lt;td&gt;student_id&lt;/td&gt;&lt;/tr&gt;&lt;/tbody&gt;&lt;/table&gt;" style="verticalAlign=top;align=left;overflow=fill;html=1;whiteSpace=wrap;" vertex="1" parent="1">
          <mxGeometry x="2510" y="590" width="170" height="90" as="geometry" />
        </mxCell>
        <mxCell id="wmTt1OREweZVdawmAFVs-96" value="&lt;div style=&quot;box-sizing:border-box;width:100%;background:#e4e4e4;padding:2px;&quot;&gt;lesson&lt;/div&gt;&lt;table style=&quot;width:100%;font-size:1em;&quot; cellpadding=&quot;2&quot; cellspacing=&quot;0&quot;&gt;&lt;tbody&gt;&lt;tr&gt;&lt;td&gt;PK&lt;/td&gt;&lt;td&gt;lesson_id&lt;/td&gt;&lt;/tr&gt;&lt;tr&gt;&lt;td&gt;FK&lt;/td&gt;&lt;td&gt;discipline_id&lt;/td&gt;&lt;/tr&gt;&lt;tr&gt;&lt;td&gt;FK&lt;/td&gt;&lt;td&gt;teacher_id&lt;/td&gt;&lt;/tr&gt;&lt;/tbody&gt;&lt;/table&gt;&lt;table style=&quot;border-color: var(--border-color); font-size: 1em; width: 180px;&quot; cellpadding=&quot;2&quot; cellspacing=&quot;0&quot;&gt;&lt;tbody style=&quot;border-color: var(--border-color);&quot;&gt;&lt;tr style=&quot;border-color: var(--border-color);&quot;&gt;&lt;td style=&quot;border-color: var(--border-color);&quot;&gt;FK&lt;/td&gt;&lt;td style=&quot;border-color: var(--border-color);&quot;&gt;group_id&lt;/td&gt;&lt;/tr&gt;&lt;tr style=&quot;border-color: var(--border-color);&quot;&gt;&lt;td style=&quot;border-color: var(--border-color);&quot;&gt;&lt;br&gt;&lt;/td&gt;&lt;td style=&quot;border-color: var(--border-color);&quot;&gt;date &amp;nbsp; &amp;nbsp; &amp;nbsp; &amp;nbsp; &amp;nbsp; &amp;nbsp;&lt;/td&gt;&lt;/tr&gt;&lt;tr style=&quot;border-color: var(--border-color);&quot;&gt;&lt;td style=&quot;border-color: var(--border-color);&quot;&gt;&lt;br&gt;&lt;/td&gt;&lt;td style=&quot;border-color: var(--border-color);&quot;&gt;duration&lt;/td&gt;&lt;/tr&gt;&lt;/tbody&gt;&lt;/table&gt;&lt;table style=&quot;border-color: var(--border-color); font-size: 1em; width: 180px;&quot; cellpadding=&quot;2&quot; cellspacing=&quot;0&quot;&gt;&lt;tbody style=&quot;border-color: var(--border-color);&quot;&gt;&lt;tr style=&quot;border-color: var(--border-color);&quot;&gt;&lt;td style=&quot;border-color: var(--border-color);&quot;&gt;&lt;span style=&quot;white-space: pre;&quot;&gt;&amp;nbsp;  &lt;/span&gt;&lt;/td&gt;&lt;td style=&quot;border-color: var(--border-color);&quot;&gt;&amp;nbsp;start time&lt;/td&gt;&lt;/tr&gt;&lt;/tbody&gt;&lt;/table&gt;" style="verticalAlign=top;align=left;overflow=fill;html=1;whiteSpace=wrap;" vertex="1" parent="1">
          <mxGeometry x="2200" y="700" width="180" height="160" as="geometry" />
        </mxCell>
        <mxCell id="wmTt1OREweZVdawmAFVs-98" style="rounded=0;orthogonalLoop=1;jettySize=auto;html=1;entryX=-0.002;entryY=0.293;entryDx=0;entryDy=0;entryPerimeter=0;edgeStyle=orthogonalEdgeStyle;" edge="1" parent="1" source="wmTt1OREweZVdawmAFVs-85" target="wmTt1OREweZVdawmAFVs-96">
          <mxGeometry relative="1" as="geometry">
            <Array as="points">
              <mxPoint x="1850" y="480" />
              <mxPoint x="1850" y="747" />
            </Array>
          </mxGeometry>
        </mxCell>
        <mxCell id="wmTt1OREweZVdawmAFVs-99" style="edgeStyle=orthogonalEdgeStyle;rounded=0;orthogonalLoop=1;jettySize=auto;html=1;entryX=0.004;entryY=0.385;entryDx=0;entryDy=0;entryPerimeter=0;" edge="1" parent="1" source="wmTt1OREweZVdawmAFVs-86" target="wmTt1OREweZVdawmAFVs-96">
          <mxGeometry relative="1" as="geometry">
            <Array as="points">
              <mxPoint x="2080" y="480" />
              <mxPoint x="2080" y="762" />
            </Array>
          </mxGeometry>
        </mxCell>
      </root>
    </mxGraphModel>
  </diagram>
</mxfile>
